<mxfile host="app.diagrams.net" agent="Mozilla/5.0 (Windows NT 10.0; Win64; x64) AppleWebKit/537.36 (KHTML, like Gecko) Chrome/129.0.0.0 Safari/537.36" version="24.8.6">
  <diagram name="Trang-1" id="PZ-4LcMb0IJrQqWokZ5e">
    <mxGraphModel dx="1177" dy="809" grid="1" gridSize="10" guides="1" tooltips="1" connect="1" arrows="1" fold="1" page="1" pageScale="1" pageWidth="827" pageHeight="1169" math="0" shadow="0">
      <root>
        <mxCell id="0" />
        <mxCell id="1" parent="0" />
        <mxCell id="F7CPtsOqUrx0cswUeZkx-32" value="" style="edgeStyle=orthogonalEdgeStyle;rounded=0;orthogonalLoop=1;jettySize=auto;html=1;" edge="1" parent="1" source="F7CPtsOqUrx0cswUeZkx-30" target="F7CPtsOqUrx0cswUeZkx-31">
          <mxGeometry relative="1" as="geometry" />
        </mxCell>
        <mxCell id="F7CPtsOqUrx0cswUeZkx-30" value="Star" style="text;html=1;align=center;verticalAlign=middle;resizable=0;points=[];autosize=1;strokeColor=none;fillColor=none;" vertex="1" parent="1">
          <mxGeometry x="355" y="38" width="50" height="30" as="geometry" />
        </mxCell>
        <mxCell id="F7CPtsOqUrx0cswUeZkx-34" value="" style="edgeStyle=orthogonalEdgeStyle;rounded=0;orthogonalLoop=1;jettySize=auto;html=1;" edge="1" parent="1" source="F7CPtsOqUrx0cswUeZkx-31" target="F7CPtsOqUrx0cswUeZkx-33">
          <mxGeometry relative="1" as="geometry" />
        </mxCell>
        <mxCell id="F7CPtsOqUrx0cswUeZkx-31" value="nhap: a,b" style="text;html=1;align=center;verticalAlign=middle;resizable=0;points=[];autosize=1;strokeColor=none;fillColor=none;" vertex="1" parent="1">
          <mxGeometry x="345" y="148" width="70" height="30" as="geometry" />
        </mxCell>
        <mxCell id="F7CPtsOqUrx0cswUeZkx-51" value="" style="edgeStyle=orthogonalEdgeStyle;rounded=0;orthogonalLoop=1;jettySize=auto;html=1;" edge="1" parent="1" source="F7CPtsOqUrx0cswUeZkx-33">
          <mxGeometry relative="1" as="geometry">
            <mxPoint x="420" y="460" as="targetPoint" />
          </mxGeometry>
        </mxCell>
        <mxCell id="F7CPtsOqUrx0cswUeZkx-61" value="sai" style="edgeLabel;html=1;align=center;verticalAlign=middle;resizable=0;points=[];" vertex="1" connectable="0" parent="F7CPtsOqUrx0cswUeZkx-51">
          <mxGeometry x="-0.3439" relative="1" as="geometry">
            <mxPoint as="offset" />
          </mxGeometry>
        </mxCell>
        <mxCell id="F7CPtsOqUrx0cswUeZkx-57" value="" style="edgeStyle=orthogonalEdgeStyle;rounded=0;orthogonalLoop=1;jettySize=auto;html=1;" edge="1" parent="1" source="F7CPtsOqUrx0cswUeZkx-33">
          <mxGeometry relative="1" as="geometry">
            <mxPoint x="290" y="440" as="targetPoint" />
            <Array as="points">
              <mxPoint x="360" y="389" />
              <mxPoint x="290" y="389" />
            </Array>
          </mxGeometry>
        </mxCell>
        <mxCell id="F7CPtsOqUrx0cswUeZkx-58" value="dung" style="edgeLabel;html=1;align=center;verticalAlign=middle;resizable=0;points=[];" vertex="1" connectable="0" parent="F7CPtsOqUrx0cswUeZkx-57">
          <mxGeometry x="-0.5435" relative="1" as="geometry">
            <mxPoint as="offset" />
          </mxGeometry>
        </mxCell>
        <mxCell id="F7CPtsOqUrx0cswUeZkx-33" value="neu a=0" style="text;html=1;align=center;verticalAlign=middle;resizable=0;points=[];autosize=1;strokeColor=none;fillColor=none;" vertex="1" parent="1">
          <mxGeometry x="345" y="258" width="70" height="30" as="geometry" />
        </mxCell>
        <mxCell id="F7CPtsOqUrx0cswUeZkx-63" value="" style="edgeStyle=orthogonalEdgeStyle;rounded=0;orthogonalLoop=1;jettySize=auto;html=1;" edge="1" parent="1" source="F7CPtsOqUrx0cswUeZkx-53">
          <mxGeometry relative="1" as="geometry">
            <mxPoint x="490" y="493" as="targetPoint" />
          </mxGeometry>
        </mxCell>
        <mxCell id="F7CPtsOqUrx0cswUeZkx-53" value="c=-b/a" style="text;html=1;align=center;verticalAlign=middle;resizable=0;points=[];autosize=1;strokeColor=none;fillColor=none;" vertex="1" parent="1">
          <mxGeometry x="350" y="478" width="60" height="30" as="geometry" />
        </mxCell>
        <mxCell id="F7CPtsOqUrx0cswUeZkx-68" value="" style="edgeStyle=orthogonalEdgeStyle;rounded=0;orthogonalLoop=1;jettySize=auto;html=1;" edge="1" parent="1" source="F7CPtsOqUrx0cswUeZkx-56" target="F7CPtsOqUrx0cswUeZkx-67">
          <mxGeometry relative="1" as="geometry" />
        </mxCell>
        <mxCell id="F7CPtsOqUrx0cswUeZkx-56" value="in: vo nghiem" style="text;html=1;align=center;verticalAlign=middle;resizable=0;points=[];autosize=1;strokeColor=none;fillColor=none;" vertex="1" parent="1">
          <mxGeometry x="250" y="440" width="90" height="30" as="geometry" />
        </mxCell>
        <mxCell id="F7CPtsOqUrx0cswUeZkx-66" value="" style="edgeStyle=orthogonalEdgeStyle;rounded=0;orthogonalLoop=1;jettySize=auto;html=1;" edge="1" parent="1" source="F7CPtsOqUrx0cswUeZkx-64" target="F7CPtsOqUrx0cswUeZkx-65">
          <mxGeometry relative="1" as="geometry" />
        </mxCell>
        <mxCell id="F7CPtsOqUrx0cswUeZkx-64" value="in:c" style="text;html=1;align=center;verticalAlign=middle;resizable=0;points=[];autosize=1;strokeColor=none;fillColor=none;" vertex="1" parent="1">
          <mxGeometry x="490" y="478" width="40" height="30" as="geometry" />
        </mxCell>
        <mxCell id="F7CPtsOqUrx0cswUeZkx-65" value="end" style="text;html=1;align=center;verticalAlign=middle;resizable=0;points=[];autosize=1;strokeColor=none;fillColor=none;" vertex="1" parent="1">
          <mxGeometry x="610" y="478" width="40" height="30" as="geometry" />
        </mxCell>
        <mxCell id="F7CPtsOqUrx0cswUeZkx-67" value="end" style="text;html=1;align=center;verticalAlign=middle;resizable=0;points=[];autosize=1;strokeColor=none;fillColor=none;" vertex="1" parent="1">
          <mxGeometry x="105" y="440" width="40" height="30" as="geometry" />
        </mxCell>
      </root>
    </mxGraphModel>
  </diagram>
</mxfile>
